HIERARCHY
ROOT Hips
{
	OFFSET 2.832361 0.033749 0.669400
	CHANNELS 6 Xposition Yposition Zposition Zrotation Yrotation Xrotation 
	JOINT Spine
	{
		OFFSET 0.000011 8.340382 -2.713908
		CHANNELS 3 Zrotation Yrotation Xrotation
		JOINT Spine1
		{
			OFFSET -0.000010 11.909917 -2.100038
			CHANNELS 3 Zrotation Yrotation Xrotation
			JOINT Spine2
			{
				OFFSET -0.000025 12.047690 -1.054051
				CHANNELS 3 Zrotation Yrotation Xrotation
				JOINT Spine3
				{
					OFFSET -0.000033 12.093753 -0.000038
					CHANNELS 3 Zrotation Yrotation Xrotation
					JOINT Neck
					{
						OFFSET 0.000032 15.549141 1.554852
						CHANNELS 3 Zrotation Yrotation Xrotation
						JOINT Neck1
						{
							OFFSET 0.000029 4.687355 0.410080
							CHANNELS 3 Zrotation Yrotation Xrotation
							JOINT Head
							{
								OFFSET 0.000038 4.633810 0.817004
								CHANNELS 3 Zrotation Yrotation Xrotation
								JOINT HeadEnd
								{
									OFFSET 0.000003 9.727709 -0.000032
									CHANNELS 3 Zrotation Yrotation Xrotation
									End Site
									{
										OFFSET 0.000000 0.000000 0.000000
									}
								}
							}
						}
					}
					JOINT RightShoulder
					{
						OFFSET -0.000011 11.106384 6.072641
						CHANNELS 3 Zrotation Yrotation Xrotation
						JOINT RightArm
						{
							OFFSET -19.427921 0.000022 0.000039
							CHANNELS 3 Zrotation Yrotation Xrotation
							JOINT RightForeArm
							{
								OFFSET -29.350716 0.000018 -0.000091
								CHANNELS 3 Zrotation Yrotation Xrotation
								JOINT RightHand
								{
									OFFSET -27.018035 -0.000025 0.000019
									CHANNELS 3 Zrotation Yrotation Xrotation
									JOINT RightHandMiddle1
									{
										OFFSET -9.244032 -0.000002 -0.000003
										CHANNELS 3 Zrotation Yrotation Xrotation
										JOINT RightHandMiddle2
										{
											OFFSET -4.870025 -0.000025 0.000041
											CHANNELS 3 Zrotation Yrotation Xrotation
											JOINT RightHandMiddle3
											{
												OFFSET -3.169061 0.000002 0.000009
												CHANNELS 3 Zrotation Yrotation Xrotation
												JOINT RightHandMiddle4
												{
													OFFSET -1.888360 0.000004 -0.000037
													CHANNELS 3 Zrotation Yrotation Xrotation
													End Site
													{
														OFFSET 0.000000 0.000000 0.000000
													}
												}
											}
										}
									}
									JOINT RightHandRing
									{
										OFFSET -0.250027 -0.249974 -0.956494
										CHANNELS 3 Zrotation Yrotation Xrotation
										JOINT RightHandRing1
										{
											OFFSET -8.140181 -0.000003 -0.734577
											CHANNELS 3 Zrotation Yrotation Xrotation
											JOINT RightHandRing2
											{
												OFFSET -4.501550 0.000035 -0.406264
												CHANNELS 3 Zrotation Yrotation Xrotation
												JOINT RightHandRing3
												{
													OFFSET -3.068861 -0.000008 -0.276946
													CHANNELS 3 Zrotation Yrotation Xrotation
													JOINT RightHandRing4
													{
														OFFSET -1.869934 0.000020 -0.168734
														CHANNELS 3 Zrotation Yrotation Xrotation
														End Site
														{
															OFFSET 0.000000 0.000000 0.000000
														}
													}
												}
											}
										}
										JOINT RightHandPinky
										{
											OFFSET -0.163017 -0.250016 -0.975108
											CHANNELS 3 Zrotation Yrotation Xrotation
											JOINT RightHandPinky1
											{
												OFFSET -6.681482 0.000022 -1.494090
												CHANNELS 3 Zrotation Yrotation Xrotation
												JOINT RightHandPinky2
												{
													OFFSET -3.580929 -0.000012 -0.800753
													CHANNELS 3 Zrotation Yrotation Xrotation
													JOINT RightHandPinky3
													{
														OFFSET -2.276486 0.000024 -0.509080
														CHANNELS 3 Zrotation Yrotation Xrotation
														JOINT RightHandPinky4
														{
															OFFSET -1.690341 0.000031 -0.377997
															CHANNELS 3 Zrotation Yrotation Xrotation
															End Site
															{
																OFFSET 0.000000 0.000000 0.000000
															}
														}
													}
												}
											}
										}
									}
									JOINT RightHandIndex
									{
										OFFSET -0.250035 -0.250023 0.956505
										CHANNELS 3 Zrotation Yrotation Xrotation
										JOINT RightHandIndex1
										{
											OFFSET -8.934105 0.000007 0.806261
											CHANNELS 3 Zrotation Yrotation Xrotation
											JOINT RightHandIndex2
											{
												OFFSET -4.694688 0.000033 0.423697
												CHANNELS 3 Zrotation Yrotation Xrotation
												JOINT RightHandIndex3
												{
													OFFSET -2.811731 -0.000006 0.253741
													CHANNELS 3 Zrotation Yrotation Xrotation
													JOINT RightHandIndex4
													{
														OFFSET -1.709975 -0.000006 0.154326
														CHANNELS 3 Zrotation Yrotation Xrotation
														End Site
														{
															OFFSET 0.000000 0.000000 0.000000
														}
													}
												}
											}
										}
										JOINT RightHandThumb1
										{
											OFFSET -0.163036 -0.750030 0.975089
											CHANNELS 3 Zrotation Yrotation Xrotation
											JOINT RightHandThumb2
											{
												OFFSET -5.411662 0.835511 2.244710
												CHANNELS 3 Zrotation Yrotation Xrotation
												JOINT RightHandThumb3
												{
													OFFSET -3.567185 0.550759 1.479611
													CHANNELS 3 Zrotation Yrotation Xrotation
													JOINT RightHandThumb4
													{
														OFFSET -2.150561 0.332024 0.892015
														CHANNELS 3 Zrotation Yrotation Xrotation
														End Site
														{
															OFFSET 0.000000 0.000000 0.000000
														}
													}
												}
											}
										}
									}
								}
							}
						}
					}
					JOINT LeftShoulder
					{
						OFFSET -0.000010 11.106414 6.072585
						CHANNELS 3 Zrotation Yrotation Xrotation
						JOINT LeftArm
						{
							OFFSET 19.427857 -0.000070 -0.000049
							CHANNELS 3 Zrotation Yrotation Xrotation
							JOINT LeftForeArm
							{
								OFFSET 29.350768 -0.000033 0.000003
								CHANNELS 3 Zrotation Yrotation Xrotation
								JOINT LeftHand
								{
									OFFSET 27.018150 -0.000073 -0.000039
									CHANNELS 3 Zrotation Yrotation Xrotation
									JOINT LeftHandMiddle1
									{
										OFFSET 9.402701 -0.000005 0.000003
										CHANNELS 3 Zrotation Yrotation Xrotation
										JOINT LeftHandMiddle2
										{
											OFFSET 4.950081 0.000008 0.000036
											CHANNELS 3 Zrotation Yrotation Xrotation
											JOINT LeftHandMiddle3
											{
												OFFSET 3.211972 -0.000007 -0.000026
												CHANNELS 3 Zrotation Yrotation Xrotation
												JOINT LeftHandMiddle4
												{
													OFFSET 1.927592 0.000013 -0.000098
													CHANNELS 3 Zrotation Yrotation Xrotation
													End Site
													{
														OFFSET 0.000000 0.000000 0.000000
													}
												}
											}
										}
									}
									JOINT LeftHandRing
									{
										OFFSET 0.249987 -0.250001 -0.906121
										CHANNELS 3 Zrotation Yrotation Xrotation
										JOINT LeftHandRing1
										{
											OFFSET 8.286064 0.000039 -0.747771
											CHANNELS 3 Zrotation Yrotation Xrotation
											JOINT LeftHandRing2
											{
												OFFSET 4.585456 -0.000024 -0.413799
												CHANNELS 3 Zrotation Yrotation Xrotation
												JOINT LeftHandRing3
												{
													OFFSET 3.124410 0.000021 -0.281966
													CHANNELS 3 Zrotation Yrotation Xrotation
													JOINT LeftHandRing4
													{
														OFFSET 1.908782 -0.000036 -0.172249
														CHANNELS 3 Zrotation Yrotation Xrotation
														End Site
														{
															OFFSET 0.000000 0.000000 0.000000
														}
													}
												}
											}
										}
										JOINT LeftHandPinky
										{
											OFFSET 0.167554 -0.250024 -0.924981
											CHANNELS 3 Zrotation Yrotation Xrotation
											JOINT LeftHandPinky1
											{
												OFFSET 6.823480 0.000008 -1.525885
												CHANNELS 3 Zrotation Yrotation Xrotation
												JOINT LeftHandPinky2
												{
													OFFSET 3.642839 0.000003 -0.814602
													CHANNELS 3 Zrotation Yrotation Xrotation
													JOINT LeftHandPinky3
													{
														OFFSET 2.333108 -0.000019 -0.521744
														CHANNELS 3 Zrotation Yrotation Xrotation
														JOINT LeftHandPinky4
														{
															OFFSET 1.725438 -0.000005 -0.385864
															CHANNELS 3 Zrotation Yrotation Xrotation
															End Site
															{
																OFFSET 0.000000 0.000000 0.000000
															}
														}
													}
												}
											}
										}
									}
									JOINT LeftHandIndex
									{
										OFFSET 0.250029 -0.249999 0.906181
										CHANNELS 3 Zrotation Yrotation Xrotation
										JOINT LeftHandIndex1
										{
											OFFSET 9.088020 -0.000002 0.820121
											CHANNELS 3 Zrotation Yrotation Xrotation
											JOINT LeftHandIndex2
											{
												OFFSET 4.776556 0.000016 0.431085
												CHANNELS 3 Zrotation Yrotation Xrotation
												JOINT LeftHandIndex3
												{
													OFFSET 2.865130 -0.000002 0.258584
													CHANNELS 3 Zrotation Yrotation Xrotation
													JOINT LeftHandIndex4
													{
														OFFSET 1.745465 -0.000000 0.157492
														CHANNELS 3 Zrotation Yrotation Xrotation
														End Site
														{
															OFFSET 0.000000 0.000000 0.000000
														}
													}
												}
											}
										}
										JOINT LeftHandThumb1
										{
											OFFSET 0.167545 -0.749989 0.924976
											CHANNELS 3 Zrotation Yrotation Xrotation
											JOINT LeftHandThumb2
											{
												OFFSET 5.551420 0.857144 2.302684
												CHANNELS 3 Zrotation Yrotation Xrotation
												JOINT LeftHandThumb3
												{
													OFFSET 3.625643 0.559787 1.503875
													CHANNELS 3 Zrotation Yrotation Xrotation
													JOINT LeftHandThumb4
													{
														OFFSET 2.195237 0.338959 0.910541
														CHANNELS 3 Zrotation Yrotation Xrotation
														End Site
														{
															OFFSET 0.000000 0.000000 0.000000
														}
													}
												}
											}
										}
									}
								}
							}
						}
					}
				}
			}
		}
	}
	JOINT RightUpLeg
	{
		OFFSET -8.786555 0.000006 0.000007
		CHANNELS 3 Zrotation Yrotation Xrotation
		JOINT RightLeg
		{
			OFFSET -0.000071 -42.170400 -0.000002
			CHANNELS 3 Zrotation Yrotation Xrotation
			JOINT RightFoot
			{
				OFFSET 0.000015 -45.949124 -0.000049
				CHANNELS 3 Zrotation Yrotation Xrotation
				JOINT RightForeFoot
				{
					OFFSET -0.000066 -4.685817 -0.000000
					CHANNELS 3 Zrotation Yrotation Xrotation
					JOINT RightToeBase
					{
						OFFSET -0.000024 0.000020 18.351049
						CHANNELS 3 Zrotation Yrotation Xrotation
						JOINT RightToeBaseEnd
						{
							OFFSET 0.000095 -0.000001 6.416927
							CHANNELS 3 Zrotation Yrotation Xrotation
							End Site
							{
								OFFSET 0.000000 0.000000 0.000000
							}
						}
					}
				}
			}
		}
	}
	JOINT LeftUpLeg
	{
		OFFSET 8.786523 0.000023 0.000007
		CHANNELS 3 Zrotation Yrotation Xrotation
		JOINT LeftLeg
		{
			OFFSET 0.000015 -42.170428 0.000043
			CHANNELS 3 Zrotation Yrotation Xrotation
			JOINT LeftFoot
			{
				OFFSET 0.000039 -45.949137 -0.000012
				CHANNELS 3 Zrotation Yrotation Xrotation
				JOINT LeftForeFoot
				{
					OFFSET 0.000010 -4.685797 0.000020
					CHANNELS 3 Zrotation Yrotation Xrotation
					JOINT LeftToeBase
					{
						OFFSET 0.000020 -0.000009 18.351062
						CHANNELS 3 Zrotation Yrotation Xrotation
						JOINT LeftToeBaseEnd
						{
							OFFSET 0.000038 0.000011 7.521988
							CHANNELS 3 Zrotation Yrotation Xrotation
							End Site
							{
								OFFSET 0.000000 0.000000 0.000000
							}
						}
					}
				}
			}
		}
	}
}
MOTION
Frames: 4
Frame Time: 0.066667
9.167739 -1.126305 10.502853 -2.819920 13.148172 -0.928146 3.231479 -1.149762 2.519635 0.217828 0.092308 -2.437789 -0.657393 0.759159 -0.810063 1.079367 0.673694 9.347033 5.689707 -1.845442 8.426245 -8.126620 2.223395 1.065792 -4.722081 0.976692 1.596200 0.000902 -0.002646 -0.000617 7.675283 -12.262780 -1.636006 71.489487 16.839342 16.250050 -179.999603 60.217350 152.215820 -26.436985 -6.502725 -0.014389 31.109482 -7.694041 -0.008902 32.911152 -0.001038 -0.000321 21.042253 0.001924 0.003368 -0.003790 -0.002247 -0.003828 -1.230880 -1.483291 -7.701676 37.612675 -6.810383 -3.146878 56.893192 2.319116 -4.336445 17.785282 0.251550 -1.580280 0.000574 -0.000030 0.000186 -2.973320 -4.161088 -4.061824 28.886477 1.802748 -6.227502 59.227879 6.168696 -11.068003 36.688805 2.548180 -7.678406 0.001566 -0.000749 -0.002738 0.245683 7.233738 -1.542118 24.180635 -11.577543 2.187126 22.452679 -0.339746 1.975678 18.280321 -0.244985 1.623647 0.000992 0.000914 -0.000498 12.186530 -4.085437 52.556011 -7.700983 7.048800 -2.259854 -8.041161 4.823275 -2.811356 -0.000827 0.000639 -0.000219 -10.471273 7.935584 -1.458494 -65.117249 -12.326573 7.339721 179.999634 -57.917057 168.170074 13.877234 17.686874 0.018638 -22.289614 5.313995 -0.004271 -50.206409 -0.000478 0.001920 -24.650036 -0.000247 -0.000307 0.001649 0.001845 -0.001682 -0.439324 1.775554 -10.951859 -20.488674 4.660690 -1.804018 -57.499847 -2.404174 -4.363122 -14.698897 -0.165485 -1.309460 -0.000097 0.001900 0.003379 0.007391 1.916628 -4.743143 -8.668781 6.399392 -1.895623 -44.913578 -3.722927 -9.083323 -29.851761 -1.678411 -6.388554 0.001027 0.000826 -0.001053 -0.331208 -6.864398 -3.763768 -20.127991 13.621938 1.858206 -38.906284 1.101703 3.250806 -19.847809 0.289358 1.757636 0.000674 0.000134 0.002179 -14.616921 6.425316 51.322594 -2.767568 5.046054 0.358890 0.000000 0.000000 0.000000 -0.001844 -0.000922 0.000584 -10.403036 2.258965 -5.163918 -0.000682 0.001084 18.332367 0.000000 -0.000000 -0.000000 -0.000000 -0.000000 -0.000000 -0.000000 0.000000 0.000000 0.000000 0.000000 0.000000 -2.971704 -12.488982 6.087574 0.002295 0.002311 2.764971 -0.000000 -0.000000 -0.000000 0.000000 -0.000000 -0.000000 -0.000000 -0.000000 0.000000 0.000000 -0.000000 -0.000000 
9.075539 -1.125482 10.562364 -2.809356 13.029639 -0.902910 3.190731 -1.144046 2.730540 0.213601 0.101438 -2.408946 -0.683336 0.857544 -0.814870 1.030720 0.688767 9.343003 5.647732 -1.713456 8.296110 -8.122443 2.319068 1.024551 -4.746510 0.986906 1.593041 0.001268 -0.002761 -0.000582 7.613143 -12.195249 -1.612589 71.504852 17.260878 16.103035 179.999451 60.338482 151.535110 -26.421118 -6.250762 -0.017071 30.462536 -8.059494 -0.008815 33.316467 -0.000959 0.000062 20.665657 0.002081 0.003337 -0.003593 -0.002298 -0.003802 -1.375144 -1.438896 -7.000427 36.276047 -6.838899 -3.050655 56.316662 2.293898 -4.307757 17.701334 0.249533 -1.572987 0.000489 -0.000215 0.000131 -2.937847 -4.199639 -4.322381 27.549355 1.656884 -5.965608 59.222218 6.187427 -11.067741 37.391758 2.640219 -7.805193 0.001056 -0.000641 -0.002446 0.340843 7.175548 -1.246969 24.360033 -11.784048 2.204226 22.793779 -0.364482 2.004520 18.274544 -0.247561 1.623139 0.001128 0.000857 -0.000662 12.041827 -4.263911 52.284256 -7.646667 6.390178 -2.369106 -7.259184 4.374930 -2.512487 -0.000747 0.000702 -0.000070 -10.454199 7.955089 -1.457210 -64.870308 -12.028083 7.166466 179.999695 -57.824909 167.654495 14.295974 17.628754 0.017508 -23.049883 5.079519 -0.003693 -49.023941 -0.000608 0.001769 -24.083071 -0.000114 -0.000089 0.001473 0.001977 -0.001593 -0.491353 1.703910 -10.879844 -20.953379 4.389517 -1.842764 -56.363194 -2.331186 -4.307557 -14.251956 -0.158142 -1.271146 -0.000178 0.002153 0.002730 -0.078241 1.750443 -4.941866 -8.686141 6.388319 -1.900044 -44.399166 -3.659981 -9.002542 -29.605528 -1.660245 -6.341544 0.000836 0.000589 -0.001312 -0.279192 -6.754200 -3.794389 -21.548100 13.330197 1.990212 -38.008911 1.061679 3.187640 -19.482843 0.280963 1.726467 0.000555 0.000318 0.001824 -14.374559 6.462326 51.215401 -2.605193 5.393844 0.248030 0.000000 0.000000 0.000000 -0.001902 -0.001427 0.000137 -10.508249 2.064891 -5.525957 -0.000469 0.000958 18.290480 0.000000 -0.000000 -0.000000 -0.000000 -0.000000 -0.000000 -0.000000 0.000000 0.000000 0.000000 0.000000 0.000000 -3.130969 -12.505638 6.105214 0.002148 0.001990 2.701780 -0.000000 -0.000000 -0.000000 0.000000 -0.000000 -0.000000 -0.000000 -0.000000 0.000000 0.000000 -0.000000 -0.000000 
8.890421 -1.116093 10.522468 -2.833753 12.971002 -0.823148 3.217455 -1.132785 2.869078 0.204690 0.106507 -2.392467 -0.701302 0.938445 -0.820457 0.986880 0.702299 9.359971 5.565577 -1.572862 8.210435 -8.123876 2.419081 0.934886 -4.775004 0.998602 1.571444 0.001488 -0.002972 -0.000607 7.584432 -12.189723 -1.607116 71.658287 17.344173 15.779627 179.998718 60.424850 151.286850 -26.937571 -5.776050 -0.021303 29.914373 -8.384326 -0.007540 32.853550 -0.000921 0.000449 20.027304 0.002228 0.003319 -0.003331 -0.002262 -0.003635 -1.480301 -1.463552 -6.366314 35.505020 -6.821050 -2.993757 55.500725 2.248824 -4.266307 17.392994 0.242752 -1.546413 0.000400 -0.000342 -0.000005 -2.891125 -4.288975 -4.493584 26.843674 1.659706 -5.831309 58.871174 6.152422 -11.028205 37.685806 2.691757 -7.858663 0.000534 -0.000679 -0.002213 0.413378 7.133690 -0.888032 24.145720 -11.768848 2.190838 22.306461 -0.383688 1.964336 17.882050 -0.243273 1.589308 0.001057 0.000885 -0.000640 11.937924 -4.418365 52.129547 -7.183316 5.796945 -2.279026 -6.540494 3.953200 -2.250367 -0.000563 0.000601 0.000081 -10.499895 8.009091 -1.474014 -64.732864 -11.719634 7.346441 179.999405 -57.583599 167.848587 14.574551 17.577206 0.017292 -23.501431 4.920904 -0.002944 -47.755901 -0.000645 0.001677 -23.467129 0.000110 0.000095 0.001168 0.001938 -0.001279 -0.564961 1.661216 -10.880489 -21.367813 4.156605 -1.877247 -55.134480 -2.243280 -4.245056 -13.802453 -0.149544 -1.232402 -0.000196 0.002274 0.002059 -0.160144 1.593810 -5.121059 -8.773268 6.466014 -1.919692 -43.585384 -3.549472 -8.872638 -29.187172 -1.623831 -6.260185 0.000707 0.000473 -0.001384 -0.211500 -6.663495 -3.842512 -22.147453 13.098491 2.049887 -36.693466 0.998736 3.093341 -18.797258 0.263734 1.667813 0.000378 0.000656 0.001457 -14.145923 6.427881 51.115685 -2.468965 5.627128 0.164549 0.000000 0.000000 0.000000 -0.001936 -0.001655 -0.000253 -10.484448 1.937050 -5.744359 -0.000317 0.000889 18.165438 0.000000 -0.000000 -0.000000 -0.000000 0.000000 -0.000000 -0.000000 0.000000 0.000000 0.000000 0.000000 0.000000 -3.032138 -12.497531 6.041165 0.001834 0.001648 2.666387 -0.000000 -0.000000 -0.000000 0.000000 -0.000000 -0.000000 -0.000000 -0.000000 0.000000 0.000000 -0.000000 -0.000000 
8.727291 -1.090455 10.440824 -2.840164 12.908994 -0.724611 3.248074 -1.120137 2.990686 0.186690 0.108301 -2.382944 -0.717002 0.988071 -0.828672 0.931139 0.714481 9.383705 5.483964 -1.447053 8.102660 -8.111777 2.571560 0.868832 -4.793900 1.011757 1.560994 0.001869 -0.003186 -0.000441 7.542062 -12.213449 -1.598779 71.750969 17.037180 15.509377 179.998001 60.666290 151.195709 -27.822651 -5.609095 -0.028334 29.536802 -8.617894 -0.004980 32.557693 -0.000962 0.000576 19.534821 0.002270 0.003505 -0.003133 -0.002333 -0.003444 -1.559377 -1.496696 -5.810744 34.938282 -6.753459 -2.951323 54.782135 2.202805 -4.229259 17.166706 0.236713 -1.526944 0.000376 -0.000655 -0.000051 -2.844463 -4.384988 -4.634739 26.231680 1.695915 -5.714636 58.478615 6.102259 -10.983434 37.869083 2.724489 -7.892562 0.000226 -0.000903 -0.001883 0.468311 7.113518 -0.578039 23.827606 -11.746261 2.167501 21.822599 -0.385879 1.924058 17.610933 -0.238051 1.565902 0.000874 0.000741 -0.000474 11.855474 -4.510571 52.113750 -6.551169 5.301009 -2.078913 -5.796185 3.513087 -1.987291 -0.000394 0.000774 0.000012 -10.561174 8.081179 -1.496629 -64.662056 -11.308144 7.870517 179.998825 -57.286110 168.267807 14.889688 17.741770 0.016917 -23.583496 4.932925 -0.002806 -47.362698 -0.000690 0.001664 -23.244862 0.000142 -0.000024 0.001099 0.001852 -0.000905 -0.594136 1.664278 -10.852626 -21.601822 4.068126 -1.896852 -54.424446 -2.186795 -4.207290 -13.624595 -0.145664 -1.217167 -0.000337 0.002081 0.001540 -0.189494 1.555139 -5.180047 -8.771939 6.490292 -1.920086 -42.992962 -3.460201 -8.777447 -28.887323 -1.593185 -6.201659 0.000881 0.000266 -0.001163 -0.188460 -6.643959 -3.840725 -22.106445 13.079241 2.049056 -36.306816 0.980923 3.064769 -18.638290 0.259191 1.653924 0.000368 0.000862 0.001165 -14.011903 6.401928 51.213409 -2.579280 5.726206 0.192390 0.000000 0.000000 0.000000 -0.002062 -0.001563 -0.000444 -10.294327 2.024044 -5.702702 -0.000027 0.000761 17.988108 0.000000 -0.000000 -0.000000 -0.000000 0.000000 -0.000000 -0.000000 0.000000 0.000000 0.000000 0.000000 0.000000 -2.721258 -12.369393 5.884575 0.001414 0.001201 2.703371 -0.000000 -0.000000 -0.000000 0.000000 -0.000000 -0.000000 -0.000000 -0.000000 0.000000 0.000000 -0.000000 -0.000000 
